<?xml version="1.0" encoding="UTF-8" standalone="no"?>
<!-- Created with Inkscape (http://www.inkscape.org/) -->

<svg
   width="640"
   height="360"
   viewBox="0 0 169.33333 95.25"
   version="1.1"
   id="svg5"
   xml:space="preserve"
   inkscape:export-filename="bot_logo.png"
   inkscape:export-xdpi="122.73556"
   inkscape:export-ydpi="122.73556"
   inkscape:version="1.2.1 (9c6d41e410, 2022-07-14)"
   sodipodi:docname="bot_logo.svg"
   xmlns:inkscape="http://www.inkscape.org/namespaces/inkscape"
   xmlns:sodipodi="http://sodipodi.sourceforge.net/DTD/sodipodi-0.dtd"
   xmlns="http://www.w3.org/2000/svg"
   xmlns:svg="http://www.w3.org/2000/svg"><sodipodi:namedview
     id="namedview7"
     pagecolor="#ffffff"
     bordercolor="#666666"
     borderopacity="1.0"
     inkscape:showpageshadow="2"
     inkscape:pageopacity="0.0"
     inkscape:pagecheckerboard="0"
     inkscape:deskcolor="#d1d1d1"
     inkscape:document-units="px"
     showgrid="false"
     inkscape:zoom="1.2546875"
     inkscape:cx="320"
     inkscape:cy="196.86177"
     inkscape:window-width="1334"
     inkscape:window-height="716"
     inkscape:window-x="32"
     inkscape:window-y="32"
     inkscape:window-maximized="1"
     inkscape:current-layer="layer1" /><defs
     id="defs2" /><g
     inkscape:label="Capa 1"
     inkscape:groupmode="layer"
     id="layer1"><path
       d="m 72.60935,12.488398 c -0.111604,0.0026 -0.225769,0.0087 -0.330729,0.03307 -1.123368,0.17825 -1.693201,1.329108 -2.513542,2.414323 -0.927576,12.676453 -2.237766,24.283459 -3.166798,36.975521 3.887523,-0.291306 9.230519,-0.23151 14.717448,-0.306123 5.969529,-0.08096 11.786658,-0.489476 14.634898,-1.521351 C 101.81988,47.957382 106.34849,42.572847 110.13044,34.57264 98.50465,27.494507 85.990123,19.08155 75.255713,13.339828 74.322792,12.950864 73.390929,12.471624 72.609879,12.488213 Z m -5.060156,5.184246 c -6.952721,13.145823 -13.102431,23.903517 -20.116535,37.282438 -0.136173,3.594365 0.573008,5.663142 1.480026,6.978385 0.909108,1.318155 1.732994,1.659202 2.951692,1.579034 1.757786,-0.582613 3.966898,-2.148152 6.25078,-4.125648 0.866035,-0.77179 6.412442,-5.583767 6.887369,-6.647656 0.870321,-11.894609 1.669971,-23.10183 2.546615,-35.06523 z m 19.851952,0.628386 c 8.462698,5.250656 16.553124,10.531475 23.919924,14.891014 2.20186,1.303047 6.37672,2.848505 9.53347,3.786717 -3.00435,-3.042444 -6.43335,-5.657321 -10.25261,-7.540625 L 87.401146,18.300765 Z m -5.390886,4.902994 c 0.85434,-0.02223 1.701536,0.21791 2.538413,0.711067 1.676135,0.974434 3.232679,2.932377 4.671483,5.878777 1.343554,2.751403 1.849702,5.297753 1.521354,7.639844 -0.325437,2.330212 -1.442508,4.083579 -3.348566,5.258594 -0.511969,0.315648 -1.054629,0.578379 -1.637242,0.785548 l -1.893358,0.479425 -1.050132,-2.14974 c 0.649023,-0.03492 1.271059,-0.138377 1.868753,-0.31406 0.597693,-0.175948 1.148556,-0.424656 1.653645,-0.736071 1.346994,-0.830262 2.117725,-1.983872 2.315105,-3.46419 0.200025,-1.492329 -0.166161,-3.333485 -1.108075,-5.531379 -0.06324,0.911199 -0.311415,1.727597 -0.735807,2.455678 -0.424391,0.72808 -1.000654,1.312703 -1.727993,1.761146 -1.508655,0.930089 -2.961217,1.144931 -4.357423,0.63664 -1.393296,-0.520224 -2.536825,-1.698837 -3.431382,-3.5306 -0.875241,-1.792631 -1.122627,-3.511285 -0.735806,-5.159375 0.387086,-1.64809 1.346994,-2.939256 2.869142,-3.877733 0.872066,-0.537687 1.73355,-0.821082 2.587889,-0.84336 z m -0.190235,2.224167 c -0.493183,0.01834 -0.98716,0.17899 -1.488281,0.487812 -0.915988,0.564726 -1.464204,1.38258 -1.645179,2.447396 -0.17833,1.052909 0.04022,2.201254 0.652991,3.455987 0.616744,1.262671 1.371336,2.091928 2.257425,2.488724 l 2.711979,-0.256302 c 0.915988,-0.5647 1.458913,-1.369669 1.636977,-2.422604 0.184942,-1.056958 -0.02831,-2.218214 -0.644789,-3.480859 -0.61304,-1.254839 -1.364456,-2.079466 -2.257425,-2.472213 -0.33364,-0.151686 -0.671248,-0.232649 -1.008592,-0.248021 -0.07038,-0.0032 -0.144462,-0.0026 -0.215106,0 z M 63.75401,32.050976 c 0.176001,-0.0098 0.319617,0.04135 0.429948,0.148828 0.355362,0.335862 0.331682,1.216316 -0.08268,2.645833 -0.288687,0.995892 -0.698659,1.971728 -1.215416,2.926821 -0.514456,0.947261 -1.100217,1.801786 -1.761146,2.55479 0.574357,-0.291306 0.933555,-0.195791 1.066614,0.289455 0.137451,0.481541 0.03754,1.299104 -0.297656,2.455598 -0.514482,1.775089 -1.25648,3.431116 -2.215885,4.969404 -0.959432,1.538023 -2.058829,2.826014 -3.307292,3.869531 -0.419126,0.350308 -0.830341,0.639762 -1.231979,0.859896 -0.399521,0.224369 -0.795867,0.381529 -1.182343,0.479425 l 0.686249,-2.348177 c 0.260483,0.08043 0.579702,0.03969 0.967396,-0.132292 0.387668,-0.171976 0.828622,-0.461962 1.314635,-0.868098 0.84717,-0.708025 1.575065,-1.550458 2.191094,-2.521744 0.620448,-0.974989 1.097492,-2.03491 1.43039,-3.183466 0.307288,-1.059921 0.341604,-1.711854 0.09922,-1.959504 -0.235611,-0.259557 -0.719508,-0.08573 -1.455208,0.529166 l -1.165807,0.975784 0.578776,-2.001044 1.215416,-1.017059 c 0.664343,-0.555095 1.246717,-1.216025 1.736328,-1.984295 0.491914,-0.776235 0.863733,-1.614038 1.12448,-2.513542 0.267705,-0.923554 0.289771,-1.477565 0.06615,-1.661901 -0.216826,-0.196032 -0.661722,-0.01246 -1.339453,0.553985 -0.370099,0.309324 -0.791289,0.708607 -1.256771,1.207135 -0.465481,0.498687 -0.990732,1.113816 -1.5875,1.843828 l 0.628386,-2.166276 c 0.587243,-0.685562 1.120907,-1.276509 1.604036,-1.777656 0.487575,-0.504931 0.926068,-0.925089 1.322917,-1.256771 0.705035,-0.58928 1.249918,-0.89617 1.637109,-0.917786 z m 48.22825,3.455987 c -3.73882,7.902311 -8.50159,13.917878 -14.60156,16.420571 l 0.926042,30.104292 c 1.594379,-0.890058 1.895738,-1.423194 2.596088,-3.108854 L 121.7057,40.748888 c 0.29025,-0.743479 0.31697,-1.224756 -0.1405,-1.537864 -3.43032,-0.959855 -6.37751,-2.132171 -9.58294,-3.704166 z m -15.701168,5.266796 0.727604,1.480079 -12.063413,5.928255 -0.735806,-1.48008 z m 17.694008,5.55625 -0.82682,2.166144 c -0.9189,1.227931 -2.16323,2.880519 -3.72904,4.952735 -1.57374,2.0828 -2.57677,3.412861 -3.00143,4.001823 -0.80328,1.108869 -1.41526,2.019565 -1.83542,2.728648 -0.42836,0.719138 -0.76173,1.388534 -1.00065,2.008982 -0.38947,1.011502 -0.51303,1.761331 -0.372,2.240756 0.13652,0.481277 0.51593,0.591079 1.13268,0.338931 0.43735,-0.178594 0.95038,-0.504031 1.54622,-0.983721 0.59135,-0.478102 1.279,-1.114954 2.05052,-1.910027 l -1.00859,2.596092 c -0.72205,0.646112 -1.36525,1.175808 -1.9349,1.5875 -0.56964,0.411956 -1.05833,0.702733 -1.46341,0.868362 -1.06786,0.436298 -1.72878,0.287867 -1.98437,-0.438414 -0.25559,-0.726282 -0.0646,-1.91479 0.57044,-3.563409 0.3011,-0.782108 0.66701,-1.55231 1.09961,-2.32357 0.42492,-0.760942 1.03373,-1.704446 1.81901,-2.827603 0.21008,-0.293687 0.84667,-1.154641 1.91823,-2.587889 l 4.51458,-6.002867 -4.86992,1.984375 0.83503,-2.166144 z m -18.239844,6.192838 c -3.365235,1.009385 -8.774377,1.221846 -14.403123,1.298046 -4.777052,0.04524 -11.317287,-0.33073 -15.172266,0.363802 -2.251155,2.169054 -4.674659,4.488127 -7.044532,6.540235 -2.110158,1.767417 -4.271168,3.603096 -6.93711,4.44844 -0.327871,0.02646 -0.381132,-0.01058 -0.711067,-0.04974 0.988245,0.889529 2.02737,1.428485 3.150129,2.06719 L 92.56912,82.387691 c 0.199496,0.03889 2.30161,0.817562 4.018491,0.0082 L 95.735918,52.52179 Z m -18.231379,8.392319 c 0.169598,-0.0058 0.337608,-0.005 0.504296,0 0.1905,0.0058 0.375179,0.0217 0.562239,0.04127 1.496484,0.157427 2.68658,0.726281 3.571875,1.711589 0.633148,0.704586 0.893234,1.421078 0.76888,2.14974 -0.116417,0.725223 -0.599546,1.386681 -1.43854,1.984375 1.296988,-0.289983 2.50534,-0.28866 3.621352,-0.0082 1.123686,0.276755 2.037821,0.808567 2.745052,1.595702 1.073415,1.19433 1.380596,2.324894 0.926042,3.398309 -0.446881,1.06971 -1.620573,2.012156 -3.530336,2.8194 -1.910027,0.807244 -3.664743,1.105164 -5.26706,0.901171 -1.594379,-0.207166 -2.928408,-0.905669 -4.001823,-2.099998 -0.707231,-0.7874 -0.987689,-1.584854 -0.843227,-2.397919 0.144198,-0.8128 0.692944,-1.551517 1.653646,-2.215885 v -0.0082 c -1.163638,0.248708 -2.244725,0.251354 -3.249348,0 -0.997056,-0.254532 -1.814407,-0.734219 -2.447528,-1.438804 -0.885375,-0.985309 -1.095931,-1.972469 -0.628386,-2.959894 0.475298,-0.990865 1.574245,-1.845998 3.290888,-2.571485 1.320271,-0.558007 2.57519,-0.861484 3.76211,-0.901171 z m -0.413544,1.719791 c -0.686858,0.0127 -1.412346,0.185738 -2.166143,0.504296 -1.01309,0.428096 -1.634067,0.933185 -1.876955,1.529556 -0.235188,0.593196 -0.0694,1.213644 0.504296,1.852084 0.573881,0.638704 1.296459,1.018645 2.174611,1.141148 0.885825,0.119324 1.839648,-0.03493 2.852473,-0.463021 1.005152,-0.424921 1.625864,-0.933186 1.868752,-1.529557 0.250563,-0.59981 0.09419,-1.221845 -0.47969,-1.86055 -0.573617,-0.638439 -1.313921,-1.016793 -2.207419,-1.132681 -0.221721,-0.02989 -0.440796,-0.04551 -0.669925,-0.04127 z m 5.101696,5.341144 c -0.781314,0 -1.590146,0.182033 -2.430992,0.537633 -1.113366,0.470429 -1.806045,1.049338 -2.066925,1.744398 -0.253206,0.691886 -0.04789,1.40679 0.619919,2.14974 0.667809,0.743214 1.515269,1.20015 2.530211,1.355989 1.022614,0.152665 2.086239,-0.009 3.19987,-0.479425 1.113367,-0.470693 1.806046,-1.057804 2.066925,-1.752864 0.255853,-0.700617 0.05106,-1.420548 -0.611716,-2.157942 -0.667809,-0.743214 -1.515798,-1.186921 -2.538413,-1.339585 -0.253735,-0.03889 -0.508529,-0.05821 -0.768879,-0.05794 z"
       id="path409"
       style="stroke-width:0.264583" /></g></svg>
